<?xml version="1.0" encoding="UTF-8"?>
<svg id="Checklist-Rule--Streamline-Core" xmlns="http://www.w3.org/2000/svg" version="1.1" viewBox="0 0 1080 1080">
  <!-- Generator: Adobe Illustrator 30.2.1, SVG Export Plug-In . SVG Version: 2.1.1 Build 1)  -->
  <defs>
    <style>
      .st0 {
        fill: #26c0cf;
      }

      .st0, .st1 {
        fill-rule: evenodd;
      }

      .st1 {
        fill: #26304c;
      }
    </style>
  </defs>
  <g id="checklist-rule--checklist-rule-check-cross">
    <path id="Union" class="st1" d="M625.78,131.11c-28.42,0-51.47,23.04-51.47,51.47s23.04,51.47,51.47,51.47h308.8c28.42,0,51.47-23.04,51.47-51.47s-23.04-51.47-51.47-51.47h-308.8ZM625.78,817.34c-28.42,0-51.47,23.04-51.47,51.47s23.04,51.47,51.47,51.47h308.8c28.42,0,51.47-23.04,51.47-51.47s-23.04-51.47-51.47-51.47h-308.8ZM574.31,411.32c0-28.42,23.04-51.47,51.47-51.47h308.8c28.42,0,51.47,23.04,51.47,51.47s-23.04,51.47-51.47,51.47h-308.8c-28.42,0-51.47-23.04-51.47-51.47ZM625.78,588.6c-28.42,0-51.47,23.04-51.47,51.47s23.04,51.47,51.47,51.47h308.8c28.42,0,51.47-23.04,51.47-51.47s-23.04-51.47-51.47-51.47h-308.8Z"/>
    <path id="Union_2" class="st0" d="M486.91,91.36c21.96,18.05,25.12,50.49,7.07,72.44l-211.58,257.33c-17.56,21.35-48.84,25.02-70.87,8.31l-97.21-73.77c-22.64-17.18-27.07-49.47-9.89-72.11,17.18-22.64,49.47-27.07,72.11-9.89l57.79,43.85,180.15-219.1c18.05-21.96,50.49-25.12,72.44-7.07ZM456.31,609.39c20.1,20.1,20.1,52.69,0,72.78l-100.85,100.85,100.85,100.85c20.1,20.1,20.1,52.69,0,72.79-20.1,20.1-52.69,20.1-72.78,0l-100.85-100.85-100.85,100.85c-20.1,20.1-52.69,20.1-72.79,0-20.1-20.1-20.1-52.69,0-72.79l100.85-100.85-100.85-100.85c-20.1-20.1-20.1-52.69,0-72.78,20.1-20.1,52.69-20.1,72.78,0l100.85,100.85,100.85-100.85c20.1-20.1,52.69-20.1,72.78,0Z"/>
  </g>
</svg>