<?xml version="1.0" encoding="UTF-8"?>
<svg id="Content-Insight-Idea-Trivia--Streamline-Core" xmlns="http://www.w3.org/2000/svg" version="1.1" viewBox="0 0 1080 1080">
  <!-- Generator: Adobe Illustrator 30.2.1, SVG Export Plug-In . SVG Version: 2.1.1 Build 1)  -->
  <defs>
    <style>
      .st0 {
        fill: #26c0cf;
      }

      .st0, .st1 {
        fill-rule: evenodd;
      }

      .st1 {
        fill: #26304c;
      }
    </style>
  </defs>
  <g id="content-insight-idea-trivia--content-insight-idea-trivia-charge-electricity-lamp-bolt-power">
    <path id="Union" class="st1" d="M540,99.23c-173.88,0-314.83,140.96-314.83,314.83,0,116.58,63.37,218.31,157.42,272.71v73.61c0,34.78,28.19,62.97,62.97,62.97h188.9c34.78,0,62.97-28.19,62.97-62.97v-73.61c94.05-54.4,157.42-156.13,157.42-272.71,0-173.88-140.96-314.83-314.83-314.83Z"/>
    <path id="Union_2" class="st0" d="M589.49,292.64c11.18-18.64,5.14-42.81-13.5-53.99-18.64-11.18-42.81-5.14-53.99,13.5l-94.45,157.42c-7.29,12.16-7.49,27.3-.5,39.64,6.99,12.34,20.07,19.96,34.25,19.96h87.91l-58.69,97.82c-11.18,18.64-5.14,42.81,13.5,53.99,18.64,11.18,42.81,5.14,53.99-13.5l94.45-157.42c7.29-12.16,7.49-27.3.5-39.64-6.99-12.34-20.07-19.96-34.25-19.96h-87.91s58.69-97.82,58.69-97.82ZM429.81,886.32c-26.08,0-47.23,21.14-47.23,47.23s21.14,47.23,47.23,47.23h220.38c26.08,0,47.23-21.14,47.23-47.23s-21.14-47.23-47.23-47.23h-220.38Z"/>
  </g>
</svg>