<?xml version="1.0" encoding="UTF-8"?>
<svg id="Layer_1" xmlns="http://www.w3.org/2000/svg" version="1.1" viewBox="0 0 1080 1080">
  <!-- Generator: Adobe Illustrator 30.2.1, SVG Export Plug-In . SVG Version: 2.1.1 Build 1)  -->
  <defs>
    <style>
      .st0 {
        fill: #26c0cf;
      }

      .st1 {
        fill: #26304c;
      }
    </style>
  </defs>
  <g id="file-give-hand--file-give-hand-share">
    <g id="Component_10">
      <path id="Subtract" class="st0" d="M191.09,540c67.12,0,131.54,26.68,179,74.15l102.26,102.26c11.1,19.25,9.53,43.82-4.88,61.48l-3.71,4.14c-21.25,21.23-55.75,21.23-76.99,0l-91.7-91.76-6.24-5.07c-15.35-10.13-36.23-8.45-49.74,5.07-13.49,13.52-15.2,34.4-5.07,49.74l5.07,6.18,91.76,91.76c52.13,52.12,136.7,52.12,188.83,0l9.14-10.14c8.71-10.67,15.42-22.44,20.33-34.72h189.69c52.41,0,94.91,42.49,94.91,94.91s-42.49,94.91-94.91,94.91h-369.69c-67.12,0-131.54-26.68-179-74.15l-115.67-115.67v-253.09h116.6Z"/>
      <path id="Intersect" class="st1" d="M239.11,690.27c13.51-13.51,34.39-15.2,49.74-5.07l6.24,5.07,91.7,91.76c21.25,21.23,55.75,21.24,76.99,0l3.71-4.14c14.41-17.66,15.98-42.23,4.88-61.48l76.68,76.68h.06c-4.91,12.28-11.56,24.06-20.27,34.73l-9.14,10.13c-52.13,52.12-136.7,52.12-188.83,0l-91.76-91.76-5.07-6.18c-10.13-15.34-8.42-36.23,5.07-49.74"/>
    </g>
    <path id="Union" class="st1" d="M792.5,97.71c6.09,1.21,11.73,4.2,16.19,8.65l142.36,142.36c5.93,5.93,9.27,13.98,9.27,22.37v268.91c0,52.42-42.49,94.91-94.91,94.91h-253.09c-49.14,0-89.56-37.35-94.41-85.21l-.49-9.7V192c0-52.42,42.49-94.91,94.91-94.91h174l6.18.62Z"/>
  </g>
</svg>